<?xml version="1.0" encoding="UTF-8"?>
<svg id="Livello_2" data-name="Livello 2" xmlns="http://www.w3.org/2000/svg" viewBox="0 0 1374.49 1202.41">
  <defs>
    <style>
      .cls-1 {
        fill: #601d7d;
      }
    </style>
  </defs>
  <g id="Livello_1-2" data-name="Livello 1">
    <g id="ekHYON">
      <g>
        <path class="cls-1" d="M698.64,751.43l-14.21-65.46c-2.15-9.93-6.33-22.17-3.01-31.29.68-1.86,7.05-6.57,5.15-6.99-15.26-3.36-9.94-24.79-27.77-32.3-3.81-1.6-12.89,1.35-17.84,2.81,4.63-7.31,1.06-12.83.78-19.64-1.82-43.85,1.05-87.82,9.68-130.66,3.19-15.84,9.33-30.27,15.01-44.66,7.54-19.11,24.15-39.25,40.59-44.57l22.62,50.73c4.59-11.05,1.76-15.03-.28-25.82,2.13-.44,8.37-.08,11.05.9,9.68,3.54,2.28,17.69-5.24,30.05-2.44,4.01,6.13,12.01,10.79,11.91,4.54-.1,13.22-1.47,14.8-5.22l6.7-15.96,5.38-10.93c4.49-8.98-6.67-16.44-2.72-29.88.37-1.26,4.74.54,5.42,1.6l9.11,14.28.98,9.81c.09.93,12,9.85,13.67,8.24l5.73-5.55,13.15,19.11,5.42,4.71c.93.8-9.55,10.08,7.85,34.71l5.59,7.91c1.25,1.77,7.59-5.06,7.53-7.32l-.85-30.89-2.78-31.87,8.19,4.24c3.58,1.86,3.87-13.43,13.77-19.99,15.96-10.58-11.43-29.28.6-41.67,13.29-13.7,6.38-16.85,15.38-36.43,5-10.88,3.34-27.15,3-39.43,13.4-14.1,2.82-41.77,21.54-51.73l-3.97,43.99-1.12,22.28c7.17,6.67,9.3,13.87,6.81,23.25l-4.4,16.55c6.66-1.71,9.05-2.92,11.13-2.13l7.53,2.88c2.3-4.58,9.83-11.12,11.41-9l3.15,13.38,17.56-17.03c1.19-1.15,3.95-4.96,5.02-4.03,1.08.93,4.01,3.48,3.91,3.39-3.75,5.3-6.41,11.96-5.21,14.79,5.28-1.88,8.87-3.77,9.45-1.93l2.83,9.01c11.49,2.13,18.67-28.12,16.12-34.86-2.46-6.5-3.21-17.54,1.03-20.28,2.94-1.9,10.01-2.75,10.6-5.18l2.34-9.57,9.86-18.65c5.05-9.54,11.69-18.75,14.35-30.82,1.95-8.87,7.66-21.62,12.35-28.83l11.58-17.83c3.31-5.09,6.04-12.71,3.46-18.32l-11.69-25.43-14.26-25.02-21.42-32.34c-7.69-11.61-16.35-19.49-29.02-26.53l-12.84-12.21c-19.1-5.1-15.27-28.71-31.77-33.75l-35.96,15.62-17.97,5.44-28.34,12.88c-21.25,9.66-36.79,24.03-51.23,41.73-6.52,7.99-16.83,15.66-22.64,23.64l-21.93,30.11-26.08,38.23-18.81,32.34-7.35,15.77-35.09,87.49-23.8-32.32-19.31-26.39c-10.08-13.77-24.62-26.47-37.04-38.28-5.9-1.9-14.3-5.04-18.87-8.15l-14.33-9.75c-18.22-12.4-39.41-16.44-60.82-10.43-20.42,5.74-45.82-3.57-72.54,22.39-3.64,3.54-13.31,7.46-15.65,11.59l-23.07,40.71-10.15,20.51-20.9,65.85c-1.75,5.51,4.91,17.21,7.75,19.94l.93-8.13,10.4,8.88-1.73-9.95c-.25-1.46,2.24-4.54,3.54-6.44l-7.22-7.81c4.73-6.57,6.9-13.26,7-20.77l6.47-1.54c-2.06-4.64-1.82-16.15,2.33-22.15,1.45-2.09,8.03,3.57,7.66,6.16l-4.76,33.53c10.52,4.96,9.73,12,11.75,20.73,3.53,2.65,8.1,7.19,7.89,14.46l-20.04-11.21c.78,14.33,11.9,26.46,15.32,25.45l9.85-2.92c4.61,10.56,7.92,22.53,11.1,34.78l9.15,35.26,14.37,39.58c3.67,2.17,10.32,8.34,11.28,12.38l9.46,40.02c14.42,4.6,11.34,21.96,18.29,20.54l6.87-1.41c3.14-.64,10.71,3.03,10.94,6.25l.95,13.47,13.42,10.99-4.4-17.56,3.86-5.99c.59-.92,4.46.16,4.44,1.27l-.12,6.39c-.19,9.82,2.94,14.66,13.34,20.77l-7.59,11.91c31.61,8.8,27.62,39.12,29.5,38.65l9.06-2.27c7.95,16.38,22.41,27.46,40.72,29.45,3.33,3.6,9.33,9.32,12.98,10.37,24.66,7.05,19.59,30.26,27.58,29.23l7.37-.95,9.54,6.19c1.41-8.48-1.7-14.61-3.68-21.64-6.22-22.15-3.31-39.58-5.26-56.85l11.15-11.07,12.55,27.16c9.25,20.03,8.31,69.31,28.25,97.31ZM1060.12,197.8c1.82-4.15-6.3-15.24-8.68-15.52-8.88,12.7-10.99,29.4-2.02,39.93l10.7-24.41ZM378.26,379.91c.78-5.6-8.54-13.5-12.31-11.39-7.52,4.19-5.67,13.2-.7,22.05,3.19-.79,12.4-6.27,13.01-10.66ZM1166.82,544.96c4.55,5.9,21.22,6.43,22.65.41l2.3-9.66c.31-1.32,4.34.26,6.5.96l7.64-25.47,17.12-7.63c.65,31.47-22.3,44.96-2.68,64.45l15.02-17.65-9.56-9.99,22.46-14.42.65,15.76c.1,2.4,8.58,1.78,9.8-.2,1.64-2.66,5.16-7.58,7.38-9.8,1.89-1.89,6.39-.79,12.36,1.38.49-1,.68-9.63.64-13.61l12.34-18.24,12.25-15.86c9.27-12,3.5-28.33,13.61-34.6,2.23,3.25,5.61,9.09,6.74,7.7l5.42-6.58-.21-17.95c4.95,10.51,7.4,20.03,20.5,23.11l-6.33-87.58c4.91,5.27,9.45,9.58,10.95,10.24l-7.44-28.72c-1.14-4.38-.38-12.91,3.13-15,3.92-2.34,10.13-4.13,15.8-5.94,4.45-1.42.93-13.63-2.82-16.75,3.94-3.56,13.76-13,10.96-19.59-4.74-11.14-29.47-24.41-35.72-20.39-2.27,1.46-5.15,5.76-6.5,8.85-8.69,19.92-26.35-4.14-43.46,11.71l-37.02,34.32-20.72,16.36-45.68,38.97-29.46,28.12c-30.55,29.16-55.19,61.3-82.71,95.21-3.23-2.07-10.65-8.85-10.39-13.01.24-3.85,1.8-11.81,2.4-14.06,2.33,5.23,3.91,6.32,5.97,5.73l3.08-53.9c.76-3.75-.78-6.8-3.7-3,.54,14.36-2.04,24.22-11.32,35.27l-3.9,29.72c-.52,3.98-3.18,12.64-1.2,15.61,3.27,4.9,20.9,17.67,34.55,19.12l-13.19,15.18c-3.75,4.31-7.14,10.37-8.32,14.89,8.82,3.54,15.8,9.54,15.66,15.39-.51,21.53-20.87,16.77-20.66,24.39.05,1.64,1.88,6.79,3.06,7.93l14.29,13.72c-4.29,5.21-4.31,12.05,1.36,14.51,3.95,1.72,10.32.34,13.53-3.72,3.64-4.61,4.16-7.92,2.89-14.22l18.7-17.17,4.72,8.32c2.74-12.41,9.06-20.42,20.62-22.73l2.41-19.1,23.52-20.72ZM906.4,368.07l10.23-18.5c.83-1.5.15-7-1.36-7.15-1-.1-3.9.15-4.21,1.12l-1.59,4.95c-6.14,4.58-11.79,12.34-3.06,19.58ZM410.97,448.26c-9.58-11.03-2.76-24.34-10.13-38.15-10.06,12.59.17,46.74,10.75,47.03,1.46.04,4.58-2.89,3.62-3.99l-4.25-4.89ZM798.99,483.44l10.28,5.15c2.18,1.09,8.9-3.8,9.86-6.06,2.71-6.38-.76-20.29-5.08-25.69-3.17-.63-5.66-.6-6.34-1.96l-2.36-4.75-4.95,8.74c-.82,1.45-5.45.69-7.89.78-2.82,4.15-6.53,12.4-6.92,17.65l13.41,6.14ZM53.1,727.32c10.29,19.29,16.04,37.3,29.1,51.92l22.31,24.97,15.15,16.25c23.02,24.69,52.65,40.48,80.37,59.56,47.73,32.86,95.21,61.22,150.54,80.41,10.57,3.67,24.07,11.36,34.3,13.15l26.72-17.83,32.51-16.62c4.22-2.16,10.51-9.06,14.18-13.95,15.87-5.28,35.47-4.34,50.22,4.67,11.7,7.15,26.07,10.96,38.79,8.03l-20.3-25.13-28.73-40.8c-4.82.42-7.7-.71-10.75-3.47-19.06-17.29-37.76-32.83-59.3-47l-87.93-57.88-58.33-36.8-39.4-24.77-58.21-38.51-44.85-33.03c-26.83-19.75-52.22-39.72-77.64-61.36l-37.37-31.82c-3.83-3.26-15.55-1.46-16.92-.04l.94,4.39c.16.73-1.44,3.21-1.85,2.58l-3.6-5.5-3.04,9.91c19.15,6.11,30.74,18.44,43.26,31.61,2.77,2.91,12.92,4.78,12.99,8.76l.26,14.32c-4.66,1.69-4.92,1.49-5.21,2.57l-1.69,6.27-4.57-9.88-3.56-16c1.19-.85-4.84,3.59-7,5.13-1.8,1.29,2.89,6.73,4.22,9.26,2.04,3.88-3.29,13.62-3.54,18.01-.68,12.1,1.32,23.63-3.08,34.46l-2.69-40.24-2.35-27.29-5.31,1.72-5.32-14.1c-6.43,8.03-5.43,14.19-6.18,21.78-1.66,16.88,1.93,30.98,13.55,42.94l6.71,40.28,4.24-10.58,8.63,12.63c-.72,13.36,2.28,28.07,7.76,41.56,3.87-8.22,7.58-12.39,14.06-13.92l-1.71,24.41c-3.05-2.94-3.7-5.2-10.37-5.04ZM823.03,532.62l9.56,28.81c3.29,9.91,9.29,22.92,9.2,33.78l-.32,40.15c5.74,1.81,10.78,5.1,12.63,8.26l-.11-18.11-11.62-67.97-5.85-21.92c-1.88-7.05-3.22-10.87-8.86-13.78-3.73-1.93-12.05,1.52-13.02,6.13-.68,3.24,0,9.79.15,13.83-10.61,14.01-22.44,36.34-23.9,51.51l-5.58,58.22,7.76-13.19c2.21-.33,5.46-.3,5.65-1.95l.97-8.35,4.67,17.03c3.2-9.15,4.33-17.05,5.26-27.08l4.43-47.54c1.22-13.08,2.02-24.42,8.99-37.82ZM546.26,1033.25c-2.24,8.73-5.9,22.78-9.59,29.41-.93,1.68-11.41.35-10.98,2.22l2.05,8.92c.62,2.71-8.95,4.42-11.06,2.57l-6.11-5.35c3.72-3.66,6.11-6.02,5.78-5.7-3.93-3.27-7.93-6.23-7.08-8.29l3.92-9.45h-11.75c-4.29,0-2.26,18.43-6.46,16.61l-4.57-1.98c-1.78-.77-8.15-3.31-8.25-1.37l-.36,7.08-.22,9.22c-.04,1.76-3.21,1.85-10.03,2.59l-.92-39.54c-7.76,4.57-9.74,12.98-7.31,22.54l6.18,24.37,12.62,20.28c.91,1.47,4.84,5.45,3.39,6.09l-9.91,4.38,14.67,11.67,31.09,23.14c22.07,16.43,46.64,25.18,73.05,33.26l24.85,7.6c8.61,2.63,23.3,8.28,31.85,8.34l64.84.52c76.6.61,174.29-12.99,214-81.49l-34.84-23.56-32.01-21.66c1.55-.94,8.12-4.09,10.76-4.44l72.21-9.65,17.8,13.08c37.11.77,71.35-8.54,107.48-13.81,30.79-4.5,57.65-11.88,84.55-27.12l49.8-28.2c5.6-3.17,8.47-6.39,12.9-11.96l9.89-.24,40.46-36.69,25.48-31.68c4.65-5.78,8.42-16.47,11.66-23.25l11.05-23.11,3.49-73.9-2.53-14.5c-1.09-6.26-3.63-12.19-8.55-12.41-10.1-.45-12.59,5.43-11.69,11.56.21,1.42-1.94,7.81-2.67,6.69l-3.77-5.8c-2.12-3.26-9.29-8.08-13.54-8.25-3.86-.16-7.81,8.75-8.44,13.28l-16.34,1.11,1.38,9.41c.25,1.7-5.91,1.42-7.81,1.61l-23.5,2.36c-.86-14.12,12.61-19.75,20.31-25.43.82-4.08,2.98-8.52,6.04-12.42l42.21-53.74c40.83-51.98,70.37-101.83,76.57-169.07,1.18-12.79,4.44-23.11-.9-36.05-4.77-11.57-8.94-23.63-23.13-28.46-14.19,71.71-41.22,136.83-79.48,197.17-25.03,39.47-49.2,76.03-79.27,111.88-6.62,3.11-19.67,8.85-26.52,9.7l-41.02-4.76c-4.75-.55-14.14,3.67-12.9,7.48l8.69,26.78c3.01,9.28,5.75,15.85,12.04,25.08l-19.16,20.64-27.96,17.08-39.59,37.73c-37.92,36.14-82.19,64.99-124.45,97.15-20.19,15.36-40.93,27.47-64.81,37.51l-46.73-40.63c-1.53-1.33-4.44-6.64-5.63-5.68l-6.36,5.12c-.16-4.54-1.4-12.98-4.84-13.85-3.9-.98-13.11-2.31-13.66-5.61l-2.25-13.59-7.37-5.16c-1.3-.91.25-5.7,1.8-6.01l8.06-1.64c1.12-.23-.24-5.01-1.4-5l-6.63.05-6.13-52.42-2.27-27.31c.56-9.05,6.94-24.53-3.66-31.29-5.7-3.64-14.73-14.26-18.32-19.25-1.55-2.16-8.51.05-8.82,2.64l-1.48,12.13c8.9,26.44,13.66,52.22,16.02,79.6l14.64,32.33-5.68,18.12c-.86,2.74-3.12,7.57-5.34,8.66-7.34,3.59-17.06-5.89-20.81-1.37l-5.65,6.83-13.52-5.52c-7.35,7.63-12.27,9.11-21.2,11.46l-15.53,4.09c-7.2,1.89-15.66,1.19-25.04.65.43,10.33-5.42,23.03-13.05,30.63l1.09,7.88c.23,1.67-4.12,4.92-4.5,6.74l-6.28,29.65c-6.87-13.29-5.25-24.97-4.9-38.48l.52-20.05c.07-2.71-3.99-9.44-1.86-10.71l7.78-4.62c1.1-6.67,3.32-11.84,8.9-19.82-19.67,3.54-24.47,19.69-33.77,32.86-8.33,11.8-12.89,25.67-18.28,39.45-2.56,6.54-6.34,14-6.28,20.64l.06,6.43c.01,1.18-6.4.33-6.68-.82l-6.37-26.8c-1.13-4.76-3.48-16.13-2.26-20.75l9.64-36.65c2.31-8.77,3.23-16.35,3.36-26.11l-6.26-.86c-2.84-.39,2.16,16.71-1.12,18.19l-8.59,3.87-6.98,27.21ZM927.95,728.94c3.07-10.84-6.73-24.98-13.26-32.91-1.56,4.63,1.28,11.68,3.7,16.1l-6.46,1.13-7.87,41.79-2.15,7.02c-.45,1.48-6.71-.92-5.72-1.4,6.09-16.39,5.05-41.26-5.1-52.65l-17.78,33.3c-1.8-1.78-4.45-9.42-2.76-11.68l27.99-37.12,5.11,8.5c1.82-4.98,5.76-9.27,10.92-11.15,3.1-1.13,1.74-11.65-1.53-11.64l-15.32.05c-5.97,11.83-15.09,21.3-24.7,30.3l-8.53,25.61-11.05,22.8-19.55,50.41-11.47,22.11,18.22-11.88,15.92-21.49c12.95,3.03,21.69,13.18,22.33,28.99,4.48-5.5,8.9-13.24,10.25-19.91l7.26-35.98c5.51,7.43,3.06,13.39,1.5,21.16l-8.46,42.22c9.75-12.45,12.98-26.32,20.18-39.9,3.34-6.3,3.16-10.18,5.21-17.43l13.11-46.37ZM678.22,883.49l-8.29-30.33c-.85-3.11-11.98-3.1-11.56-.22l1.66,11.22c1.46,9.83,4.52,21.26,18.18,19.34ZM798.11,893.56c.62,1.6,10.54,3.92,12.08,1.16,7.22-12.9,10.29-32.42,6.21-49.41l-9.34,23.74-8.95,24.51ZM604.08,946.1c6.51,1.17,13.14,1.54,18.25-1.62l-36.08-7.76c-14.1-3.03-19.25-10.93-27.27-8.43-2.73.85-7.87,6.58-8.25,8.22l22.68,4.08,30.66,5.51ZM422.34,1014.47c.24-9.27-2.07-24.23,3.19-28.93l24.12-19.6,28.99-10.92c-17.75-2.34-32.77,4.97-44.82,14.83-14.48,11.84-30.48,22.61-32.65,45.28,5.31.02,9.76-6.26,11.83-13.55l9.34,12.9ZM501.17,1013.88l2.55-20.7,9.51.34c1.44.05,1.85-6.22,1.46-5.76l-21.52,1.36.49,10.32c-7.75,8.27-10.34,20.86-.92,29.03,3.91-3.42,7.92-10.44,8.43-14.59ZM440.94,1068l-12.49-46.61c-5.19,1.47-7.52,2.12-5.07,1.43l.71,7.52c.08.87-.45.91-1.23.4l-5.25-3.46c-4.72,15.97,4.41,32.51,23.32,40.71ZM484.13,1034.33l-.27-6.04c-.05-1.15-5.09.11-5.13,1.26l-.17,5.1c-.15,8.99-1.2,17.87,7.79,24.7l-2.22-25.02Z"/>
        <path class="cls-1" d="M698.64,751.43c-19.94-28-19-77.29-28.25-97.31l-12.55-27.16-11.15,11.07c1.95,17.26-.96,34.7,5.26,56.85,1.98,7.04,5.09,13.16,3.68,21.64l-9.54-6.19-7.37.95c-7.99,1.03-2.93-22.19-27.58-29.23-3.65-1.04-9.65-6.77-12.98-10.37-18.31-1.99-32.77-13.07-40.72-29.45l-9.06,2.27c-1.87.47,2.11-29.85-29.5-38.65l7.59-11.91c-10.4-6.11-13.53-10.95-13.34-20.77l.12-6.39c.02-1.11-3.85-2.2-4.44-1.27l-3.86,5.99,4.4,17.56-13.42-10.99-.95-13.47c-.23-3.21-7.8-6.89-10.94-6.25l-6.87,1.41c-6.94,1.42-3.87-15.94-18.29-20.54l-9.46-40.02c-.96-4.05-7.61-10.21-11.28-12.38l-14.37-39.58-9.15-35.26c-3.18-12.25-6.49-24.22-11.1-34.78l-9.85,2.92c-3.42,1.01-14.54-11.11-15.32-25.45l20.04,11.21c.21-7.27-4.36-11.81-7.89-14.46-2.02-8.73-1.23-15.76-11.75-20.73l4.76-33.53c.37-2.59-6.21-8.25-7.66-6.16-4.15,6-4.39,17.51-2.33,22.15l-6.47,1.54c-.1,7.52-2.27,14.2-7,20.77l7.22,7.81c-1.3,1.91-3.8,4.99-3.54,6.44l1.73,9.95-10.4-8.88-.93,8.13c-2.85-2.74-9.5-14.44-7.75-19.94l20.9-65.85,10.15-20.51,23.07-40.71c2.34-4.13,12.01-8.05,15.65-11.59,26.71-25.96,52.11-16.65,72.54-22.39,21.41-6.02,42.59-1.97,60.82,10.43l14.33,9.75c4.57,3.11,12.97,6.25,18.87,8.15,12.43,11.81,26.97,24.51,37.04,38.28l19.31,26.39,23.8,32.32,35.09-87.49,7.35-15.77,18.81-32.34,26.08-38.23,21.93-30.11c5.81-7.98,16.12-15.65,22.64-23.64,14.44-17.7,29.98-32.08,51.23-41.73l28.34-12.88,17.97-5.44,35.96-15.62c16.49,5.03,12.67,28.65,31.77,33.75l12.84,12.21c12.67,7.04,21.33,14.92,29.02,26.53l21.42,32.34,14.26,25.02,11.69,25.43c2.58,5.62-.15,13.23-3.46,18.32l-11.58,17.83c-4.69,7.21-10.4,19.97-12.35,28.83-2.66,12.07-9.31,21.28-14.35,30.82l-9.86,18.65-2.34,9.57c-.59,2.42-7.66,3.28-10.6,5.18-4.24,2.74-3.49,13.78-1.03,20.28,2.55,6.73-4.63,36.99-16.12,34.86l-2.83-9.01c-.58-1.85-4.17.05-9.45,1.93-1.21-2.84,1.46-9.49,5.21-14.79.1.09-2.83-2.46-3.91-3.39-1.08-.93-3.83,2.87-5.02,4.03l-17.56,17.03-3.15-13.38c-1.58-2.13-9.11,4.41-11.41,9l-7.53-2.88c-2.08-.8-4.47.42-11.13,2.13l4.4-16.55c2.49-9.38.36-16.58-6.81-23.25l1.12-22.28,3.97-43.99c-18.72,9.96-8.14,37.64-21.54,51.73.34,12.28,2,28.54-3,39.43-9,19.58-2.09,22.73-15.38,36.43-12.03,12.39,15.36,31.1-.6,41.67-9.91,6.56-10.19,21.85-13.77,19.99l-8.19-4.24,2.78,31.87.85,30.89c.06,2.26-6.27,9.09-7.53,7.32l-5.59-7.91c-17.4-24.63-6.92-33.91-7.85-34.71l-5.42-4.71-13.15-19.11-5.73,5.55c-1.67,1.62-13.58-7.31-13.67-8.24l-.98-9.81-9.11-14.28c-.68-1.06-5.05-2.86-5.42-1.6-3.95,13.44,7.21,20.9,2.72,29.88l-5.38,10.93-6.7,15.96c-1.58,3.75-10.26,5.12-14.8,5.22-4.66.1-13.23-7.9-10.79-11.91,7.51-12.36,14.92-26.51,5.24-30.05-2.68-.98-8.91-1.34-11.05-.9,2.05,10.79,4.87,14.76.28,25.82l-22.62-50.73c-16.44,5.32-33.06,25.47-40.59,44.57-5.67,14.39-11.82,28.82-15.01,44.66-8.63,42.84-11.5,86.8-9.68,130.66.28,6.81,3.85,12.33-.78,19.64,4.95-1.46,14.03-4.41,17.84-2.81,17.83,7.51,12.5,28.95,27.77,32.3,1.9.42-4.47,5.13-5.15,6.99-3.32,9.12.85,21.37,3.01,31.29l14.21,65.46ZM1014.87,175.6l6.45,14.06,11.23-18.64-13.17-17.58c-11.92,13.71-18.11,30.37-24.13,48.53-2.47,7.44-7.36,13.32-1.25,22.92l15.31-33.15,5.56-16.14ZM1004.18,243.42l19.72-50.82c-12.38-1.56-9.63,7.28-11.86,13.47-4.53,12.59-17.23,23.27-7.86,37.35ZM985.14,269.05c1.16-2.14,5.15-6.68,4.15-8.61l-5.37-10.34c-6.67,7.01-10.93,15.17-8.2,20.28.66,1.23,5.58,5.73,6.19,4.6l3.22-5.94ZM937.22,305.4c6.61-3.56,10.79-6.53,12.58-10.06s.45-12.08-2.28-15.92c-7.15,8.74-8.84,14.53-10.3,25.98Z"/>
        <path class="cls-1" d="M546.26,1033.25l6.98-27.21,8.59-3.87c3.28-1.48-1.73-18.58,1.12-18.19l6.26.86c-.12,9.76-1.05,17.33-3.36,26.11l-9.64,36.65c-1.22,4.63,1.13,16,2.26,20.75l6.37,26.8c.27,1.15,6.69,2,6.68.82l-.06-6.43c-.06-6.64,3.72-14.1,6.28-20.64,5.39-13.78,9.95-27.66,18.28-39.45,9.3-13.17,14.1-29.32,33.77-32.86-5.58,7.99-7.8,13.15-8.9,19.82l-7.78,4.62c-2.13,1.27,1.93,8,1.86,10.71l-.52,20.05c-.35,13.51-1.98,25.19,4.9,38.48l6.28-29.65c.39-1.82,4.73-5.07,4.5-6.74l-1.09-7.88c7.63-7.6,13.48-20.3,13.05-30.63,9.38.54,17.84,1.25,25.04-.65l15.53-4.09c8.92-2.35,13.85-3.83,21.2-11.46l13.52,5.52,5.65-6.83c3.74-4.52,13.47,4.96,20.81,1.37,2.22-1.09,4.48-5.92,5.34-8.66l5.68-18.12-14.64-32.33c-2.37-27.38-7.12-53.16-16.02-79.6l1.48-12.13c.32-2.59,7.27-4.8,8.82-2.64,3.58,4.99,12.61,15.61,18.32,19.25,10.59,6.76,4.22,22.24,3.66,31.29l2.27,27.31,6.13,52.42,6.63-.05c1.16,0,2.52,4.77,1.4,5l-8.06,1.64c-1.55.32-3.1,5.11-1.8,6.01l7.37,5.16,2.25,13.59c.55,3.29,9.75,4.62,13.66,5.61,3.43.87,4.67,9.3,4.84,13.85l6.36-5.12c1.19-.96,4.1,4.35,5.63,5.68l46.73,40.63c23.88-10.04,44.63-22.14,64.81-37.51,42.26-32.16,86.53-61.02,124.45-97.15l39.59-37.73,27.96-17.08,19.16-20.64c-6.29-9.23-9.03-15.79-12.04-25.08l-8.69-26.78c-1.24-3.81,8.15-8.04,12.9-7.48l41.02,4.76c6.85-.85,19.9-6.59,26.52-9.7,30.07-35.85,54.25-72.41,79.27-111.88,38.26-60.34,65.29-125.45,79.48-197.17,14.2,4.83,18.36,16.89,23.13,28.46,5.33,12.94,2.07,23.26.9,36.05-6.2,67.24-35.74,117.09-76.57,169.07l-42.21,53.74c-3.06,3.9-5.22,8.33-6.04,12.42-7.7,5.69-21.17,11.31-20.31,25.43l23.5-2.36c1.91-.19,8.06.09,7.81-1.61l-1.38-9.41,16.34-1.11c.63-4.53,4.58-13.44,8.44-13.28,4.25.17,11.42,4.99,13.54,8.25l3.77,5.8c.73,1.12,2.88-5.26,2.67-6.69-.91-6.13,1.59-12.01,11.69-11.56,4.92.22,7.46,6.15,8.55,12.41l2.53,14.5-3.49,73.9-11.05,23.11c-3.24,6.77-7.01,17.47-11.66,23.25l-25.48,31.68-40.46,36.69-9.89.24c-4.43,5.57-7.3,8.79-12.9,11.96l-49.8,28.2c-26.9,15.23-53.76,22.62-84.55,27.12-36.12,5.27-70.36,14.59-107.48,13.81l-17.8-13.08-72.21,9.65c-2.64.35-9.2,3.5-10.76,4.44l32.01,21.66,34.84,23.56c-39.71,68.5-137.4,82.1-214,81.49l-64.84-.52c-8.55-.07-23.24-5.71-31.85-8.34l-24.85-7.6c-26.41-8.08-50.98-16.83-73.05-33.26l-31.09-23.14-14.67-11.67,9.91-4.38c1.45-.64-2.47-4.62-3.39-6.09l-12.62-20.28-6.18-24.37c-2.43-9.56-.45-17.97,7.31-22.54l.92,39.54c6.82-.73,9.99-.83,10.03-2.59l.22-9.22.36-7.08c.1-1.94,6.47.59,8.25,1.37l4.57,1.98c4.2,1.82,2.17-16.61,6.46-16.61h11.75s-3.92,9.45-3.92,9.45c-.85,2.05,3.15,5.02,7.08,8.29.32-.32-2.06,2.03-5.78,5.7l6.11,5.35c2.1,1.84,11.68.13,11.06-2.57l-2.05-8.92c-.43-1.88,10.05-.54,10.98-2.22,3.69-6.63,7.35-20.68,9.59-29.41Z"/>
        <path class="cls-1" d="M53.1,727.32c6.67-.16,7.32,2.1,10.37,5.04l1.71-24.41c-6.47,1.53-10.19,5.7-14.06,13.92-5.47-13.49-8.48-28.2-7.76-41.56l-8.63-12.63-4.24,10.58-6.71-40.28c-11.62-11.96-15.21-26.06-13.55-42.94.75-7.59-.25-13.75,6.18-21.78l5.32,14.1,5.31-1.72,2.35,27.29,2.69,40.24c4.4-10.83,2.39-22.36,3.08-34.46.25-4.39,5.58-14.13,3.54-18.01-1.33-2.53-6.02-7.97-4.22-9.26,2.16-1.55,8.19-5.99,7-5.13l3.56,16,4.57,9.88,1.69-6.27c.29-1.08.55-.88,5.21-2.57l-.26-14.32c-.07-3.98-10.22-5.85-12.99-8.76-12.53-13.17-24.11-25.5-43.26-31.61l3.04-9.91,3.6,5.5c.41.63,2.01-1.85,1.85-2.58l-.94-4.39c1.37-1.42,13.09-3.22,16.92.04l37.37,31.82c25.42,21.64,50.81,41.61,77.64,61.36l44.85,33.03,58.21,38.51,39.4,24.77,58.33,36.8,87.93,57.88c21.54,14.18,40.24,29.71,59.3,47,3.05,2.76,5.93,3.89,10.75,3.47l28.73,40.8,20.3,25.13c-12.71,2.92-27.09-.89-38.79-8.03-14.75-9.01-34.35-9.95-50.22-4.67-3.68,4.89-9.97,11.8-14.18,13.95l-32.51,16.62-26.72,17.83c-10.22-1.79-23.73-9.48-34.3-13.15-55.32-19.19-102.8-47.55-150.54-80.41-27.72-19.08-57.34-34.87-80.37-59.56l-15.15-16.25-22.31-24.97c-13.07-14.62-18.81-32.63-29.1-51.92ZM392.99,832.66l13.48-13.88-13.58-11.97-50.99-34.62c-20.39-13.84-74.33-52.31-78.08-45.27-.4.76-1.59,3.33-1.3,2.72l4.31,6.9c.73,1.16-5.83,3.34-6.7,2.29l-16.01-19.36-9.6.17c-1.09.02-.05-4.58,1.01-4.66l8.27-.66-3.31-4.22c-8.54,5.05-20.07-1.78-27.42-1.28-11.43.77-22.35,4.4-28.95-8.82l-12.73-1.37c-2.33-14.53-20.42-23.15-36.96-24.54l-12.42-21.9c-4.22-7.44-11.44-13.48-17.53-18.75-3.29-3.03-.13-16.99-10.67-13.19l4.11,23.71,29.26,48.51c17.95,29.76,82.5,120.65,97.5,121.25,15.08.6,29.92,1.52,41.69,11.23,4.54,3.75,7.52,16,16.84,8.96l-14.38-14.25,10.59,5.15c1.79.87,4.94-2.14,6.92-3.7l23.67,6.22c5.61,1.47,9.67,1.37,16.37-.67l26.67,13.59,1-9.73c-.37,3.58,15.27-5.5,28.96,2.01l15.67,8.59c1.22-5.78,1.05-5.6,2.53-5.25,2.12.51,6.05,1.52,5.94,2.98l-.45,5.83,9.63-3.89c-2.31-2.89-5.2-8.81-8.46-8.68l-14.91.56Z"/>
        <path class="cls-1" d="M1166.82,544.96l-23.52,20.72-2.41,19.1c-11.56,2.31-17.89,10.31-20.62,22.73l-4.72-8.32-18.7,17.17c1.27,6.3.76,9.6-2.89,14.22-3.21,4.07-9.58,5.44-13.53,3.72-5.66-2.46-5.65-9.3-1.36-14.51l-14.29-13.72c-1.19-1.14-3.02-6.29-3.06-7.93-.21-7.62,20.15-2.86,20.66-24.39.14-5.85-6.84-11.86-15.66-15.39,1.18-4.52,4.57-10.58,8.32-14.89l13.19-15.18c-13.66-1.45-31.28-14.22-34.55-19.12-1.98-2.97.68-11.63,1.2-15.61l3.9-29.72c9.28-11.05,11.86-20.91,11.32-35.27,2.92-3.8,4.46-.76,3.7,3l-3.08,53.9c-2.07.6-3.64-.5-5.97-5.73-.6,2.25-2.16,10.21-2.4,14.06-.26,4.17,7.16,10.95,10.39,13.01,27.52-33.9,52.15-66.05,82.71-95.21l29.46-28.12,45.68-38.97,20.72-16.36,37.02-34.32c17.11-15.86,34.77,8.21,43.46-11.71,1.35-3.09,4.24-7.39,6.5-8.85,6.26-4.02,30.98,9.25,35.72,20.39,2.81,6.59-7.02,16.03-10.96,19.59,3.74,3.12,7.26,15.32,2.82,16.75-5.67,1.81-11.88,3.6-15.8,5.94-3.51,2.1-4.26,10.62-3.13,15l7.44,28.72c-1.5-.66-6.04-4.97-10.95-10.24l6.33,87.58c-13.1-3.07-15.54-12.59-20.5-23.11l.21,17.95-5.42,6.58c-1.14,1.38-4.52-4.45-6.74-7.7-10.11,6.27-4.35,22.61-13.61,34.6l-12.25,15.86-12.34,18.24c.04,3.98-.15,12.61-.64,13.61-5.97-2.18-10.47-3.27-12.36-1.38-2.22,2.22-5.75,7.14-7.38,9.8-1.22,1.99-9.7,2.61-9.8.2l-.65-15.76-22.46,14.42,9.56,9.99-15.02,17.65c-19.62-19.49,3.33-32.98,2.68-64.45l-17.12,7.63-7.64,25.47c-2.16-.69-6.19-2.28-6.5-.96l-2.3,9.66c-1.43,6.03-18.1,5.49-22.65-.41Z"/>
        <path class="cls-1" d="M927.95,728.94l-13.11,46.37c-2.05,7.26-1.87,11.13-5.21,17.43-7.2,13.58-10.43,27.45-20.18,39.9l8.46-42.22c1.56-7.78,4.02-13.73-1.5-21.16l-7.26,35.98c-1.35,6.67-5.76,14.41-10.25,19.91-.64-15.81-9.38-25.96-22.33-28.99l-15.92,21.49-18.22,11.88,11.47-22.11,19.55-50.41,11.05-22.8,8.53-25.61c9.61-9,18.73-18.47,24.7-30.3l15.32-.05c3.27-.01,4.63,10.51,1.53,11.64-5.17,1.88-9.1,6.16-10.92,11.15l-5.11-8.5-27.99,37.12c-1.7,2.25.96,9.9,2.76,11.68l17.78-33.3c10.15,11.39,11.19,36.27,5.1,52.65-.99.48,5.27,2.88,5.72,1.4l2.15-7.02,7.87-41.79,6.46-1.13c-2.43-4.41-5.26-11.46-3.7-16.1,6.52,7.93,16.32,22.06,13.26,32.91Z"/>
        <path class="cls-1" d="M823.03,532.62c-6.96,13.41-7.77,24.74-8.99,37.82l-4.43,47.54c-.93,10.04-2.06,17.93-5.26,27.08l-4.67-17.03-.97,8.35c-.19,1.66-3.44,1.63-5.65,1.95l-7.76,13.19,5.58-58.22c1.45-15.18,13.28-37.5,23.9-51.51-.16-4.04-.83-10.59-.15-13.83.97-4.61,9.29-8.05,13.02-6.13,5.63,2.91,6.98,6.74,8.86,13.78l5.85,21.92,11.62,67.97.11,18.11c-1.85-3.15-6.89-6.45-12.63-8.26l.32-40.15c.09-10.87-5.91-23.87-9.2-33.78l-9.56-28.81Z"/>
        <path class="cls-1" d="M798.99,483.44l-13.41-6.14c.4-5.24,4.11-13.5,6.92-17.65,2.44-.09,7.07.67,7.89-.78l4.95-8.74,2.36,4.75c.68,1.36,3.17,1.34,6.34,1.96,4.32,5.4,7.8,19.31,5.08,25.69-.96,2.26-7.67,7.15-9.86,6.06l-10.28-5.15Z"/>
        <path class="cls-1" d="M422.34,1014.47l-9.34-12.9c-2.07,7.29-6.52,13.58-11.83,13.55,2.18-22.67,18.18-33.44,32.65-45.28,12.05-9.86,27.07-17.17,44.82-14.83l-28.99,10.92-24.12,19.6c-5.26,4.7-2.96,19.67-3.19,28.93Z"/>
        <path class="cls-1" d="M440.94,1068c-18.91-8.2-28.04-24.74-23.32-40.71l5.25,3.46c.77.51,1.31.46,1.23-.4l-.71-7.52c-2.46.69-.13.04,5.07-1.43l12.49,46.61Z"/>
        <path class="cls-1" d="M501.17,1013.88c-.51,4.15-4.52,11.17-8.43,14.59-9.43-8.17-6.84-20.76.92-29.03l-.49-10.32,21.52-1.36c.39-.45-.01,5.82-1.46,5.76l-9.51-.34-2.55,20.7Z"/>
        <path class="cls-1" d="M798.11,893.56l8.95-24.51,9.34-23.74c4.08,16.99,1.01,36.51-6.21,49.41-1.54,2.76-11.46.44-12.08-1.16Z"/>
        <path class="cls-1" d="M604.08,946.1l-30.66-5.51-22.68-4.08c.38-1.65,5.52-7.37,8.25-8.22,8.02-2.5,13.17,5.4,27.27,8.43l36.08,7.76c-5.12,3.16-11.75,2.79-18.25,1.62Z"/>
        <path class="cls-1" d="M678.22,883.49c-13.66,1.92-16.72-9.51-18.18-19.34l-1.66-11.22c-.43-2.88,10.71-2.89,11.56.22l8.29,30.33Z"/>
        <path class="cls-1" d="M1060.12,197.8l-10.7,24.41c-8.97-10.53-6.86-27.23,2.02-39.93,2.38.28,10.5,11.37,8.68,15.52Z"/>
        <path class="cls-1" d="M410.97,448.26l4.25,4.89c.96,1.1-2.16,4.03-3.62,3.99-10.59-.28-20.81-34.44-10.75-47.03,7.36,13.81.54,27.12,10.13,38.15Z"/>
        <path class="cls-1" d="M378.26,379.91c-.61,4.39-9.82,9.87-13.01,10.66-4.97-8.85-6.82-17.86.7-22.05,3.78-2.1,13.09,5.79,12.31,11.39Z"/>
        <path class="cls-1" d="M484.13,1034.33l2.22,25.02c-8.99-6.84-7.94-15.71-7.79-24.7l.17-5.1c.04-1.15,5.08-2.41,5.13-1.26l.27,6.04Z"/>
        <path class="cls-1" d="M906.4,368.07c-8.73-7.24-3.08-15,3.06-19.58l1.59-4.95c.31-.96,3.21-1.22,4.21-1.12,1.51.15,2.19,5.65,1.36,7.15l-10.23,18.5Z"/>
        <path class="cls-1" d="M1014.87,175.6l-5.56,16.14-15.31,33.15c-6.1-9.59-1.22-15.48,1.25-22.92,6.03-18.16,12.21-34.82,24.13-48.53l13.17,17.58-11.23,18.64-6.45-14.06Z"/>
        <path class="cls-1" d="M1004.18,243.42c-9.37-14.08,3.34-24.76,7.86-37.35,2.23-6.19-.52-15.03,11.86-13.47l-19.72,50.82Z"/>
        <path class="cls-1" d="M985.14,269.05l-3.22,5.94c-.61,1.12-5.53-3.37-6.19-4.6-2.73-5.11,1.52-13.27,8.2-20.28l5.37,10.34c1,1.93-2.99,6.46-4.15,8.61Z"/>
        <path class="cls-1" d="M937.22,305.4c1.46-11.45,3.15-17.24,10.3-25.98,2.73,3.85,4.12,12.31,2.28,15.92s-5.97,6.5-12.58,10.06Z"/>
      </g>
    </g>
  </g>
</svg>