<?xml version="1.0" encoding="UTF-8"?>
<svg id="Livello_2" data-name="Livello 2" xmlns="http://www.w3.org/2000/svg" viewBox="0 0 366.31 366.31">
  <defs>
    <style>
      .cls-1 {
        fill: #2e0644;
      }

      .cls-2 {
        fill: #889be2;
      }

      .cls-3 {
        fill: #d1b4ed;
      }
    </style>
  </defs>
  <g id="Livello_1-2" data-name="Livello 1">
    <circle class="cls-2" cx="183.15" cy="183.15" r="183.15"/>
    <path class="cls-3" d="M207.77,262.93c4.39-3.13,7.62-6.24,9.55-8.3,1.13-1.21.75-3.15-.74-3.87-2.71-1.31-6.65-3.09-8.55-3.34-3.06-.39,6.01-1.62,19.6-5.89,13.59-4.27,43.3-24.41,40.77-42.75-2.53-18.34-2.68-18.78-5.13-17.43-2.45,1.34-5.38,4.8-6.63,3.3-1.26-1.51-.3-5.73,2.33-9.33,2.63-3.6,20.42-36.79-2.37-65.86-5.22-6.65-7.48-2.97-8.31-.62-.31.87-1.1,1.47-2.03,1.56-1.71.18-4.31.72-5.45,2.37-1.51,2.18-12.79,17.6-20.25,32.26-1.08,2.13-4.25,1.64-4.61-.73-2.48-16.15-10.2-50.47-31.63-58.46-1.04-.41-2.03-.98-2.94-1.61-3.21-2.23-7.47-2.22-10.63.08-2.47,1.79-5.49,3.85-8.6,5.65-6.17,3.56-13.38,30.11-15.26,40.7-.32,1.8-2.43,2.61-3.89,1.52-5.36-4.01-15.55-11.01-20.55-10.31-6.96.98-7.15,2.51-10.7,3.5-3.54,1-11.52,6.71-11.34,19.06.17,11.55-6.07,35.77,31.16,75.31,1.81,1.92-.24,4.96-2.69,3.98-6.84-2.73-12.61-5-17.06-6.74-41.5-16.19-38.79-13.7-42.75-16.43-2.77-1.91-10.04-7.24-13.08-5.03-.32.23-.98.83-1.39,2.99-1.06,5.6,1.62,10.64,2.57,12.39,5.87,10.72,21.29,21.39,23.38,22.82,0,0,20.08,12.84,50.97,15.21,1.39.11,2.37,1.33,2.25,2.71-.13,1.45.08,3.26,1.44,4.73,2.73,2.94,13.28,18.47,40.73,17.62,4.07-.13,7.89-.69,11.44-1.57,2.74-.43,6.37-1.3,10.37-3.09,4.46-2.01,7.77-4.46,10-6.39Z"/>
    <path class="cls-1" d="M181.42,174.45c-2.09,4.63-3.32,9.2-4,14.07-.28,1.98-2.01,3.63-3.93,3.62-3.8-.03-3.3-5.36-1.68-9.64l3.64-9.61c.96-2.52,2.17-4.96,3.95-6.93,1.33-1.47,3.74-2.14,5.31-.95,1.68,1.27,2.43,3.26,3.11,5.24l1.96,5.7c.08.23.6.66.82.72s.69-.37.79-.61l4.1-9.43c.55-1.26,1.58-2.34,2.81-2.81,3.62-1.39,5,3.67,5.61,7.9l2.49,17.06c.21,1.43-.38,3.15-1.68,3.68-2.11.86-4.19-.59-4.92-2.67-1.92-5.55-.63-9.64-2.19-11.75-.28-.38-1.77-.51-1.92-.05l-2.01,6.44c-1.16,3.72-3.98,6.5-6.83,5.07-1.06-.54-1.88-1.87-2.01-3.23l-1.05-10.33c-.11-1.12-1.2-1.88-2.39-1.48Z"/>
    <path class="cls-1" d="M77.67,172.49c-.04-.37-.62-1.08-.92-1.25s-1.02-.09-1.48.04c-2.09,4.56-3.26,9.24-4.04,14.12-.37,2.33-2.78,4-4.88,3.17-3.1-1.22-1.78-6.42-.41-10.02l3.25-8.53c1.01-2.66,2.23-5.24,4.14-7.32,1.25-1.36,3.52-2.04,5.07-1.03,1.58,1.03,2.45,2.86,3.07,4.65l2.2,6.39c.08.24.61.68.84.68s.68-.38.79-.64l3.48-7.94c1.11-2.54,2.51-4.86,5.15-4.37,2.27.42,3.39,4.75,3.83,7.75l2.54,17.3c.23,1.56-.5,3.27-1.95,3.71-2.04.62-3.93-.74-4.63-2.71-1.86-5.26-.75-9.36-2.05-11.57-.24-.4-1.56-.74-1.84-.36-1.39,1.9-1.26,5.97-3.92,9.89-1.12,1.64-3.19,2.52-5.04,1.76-1.29-.54-2-2.07-2.14-3.42l-1.05-10.31Z"/>
    <path class="cls-1" d="M254.04,195.32l-6.05-9.53-2.51-4.44c-.22-.39-1.22-.75-1.66-.66-.51.11-1.01.83-1.06,1.43l-.86,11.12c-.13,1.72-1.35,2.78-3.14,2.69-.57-.03-1.59-.28-1.9-.66s-.45-1.47-.39-2.04l.83-8.31,1.39-15.71c.15-1.71.93-2.63,2.62-2.84,1.38-.18,2.58.2,3.26,1.54l7.02,13.82c.22.42.99.93,1.4.89s1.05-.52,1.39-.96l.38-13.05c.21-1.06,1.17-1.97,2.06-2.22s2.69-.27,3.08.63c.83,1.91.06,3.85-.03,5.78l-.83,18.57c-.05,1.05.06,2.29-.55,3.16-.79,1.15-3.15,1.66-4.45.79Z"/>
    <path class="cls-1" d="M133.38,176c-1.78-6.11-5.55-13.41-.21-14.62,1.67-.38,3.23.35,3.64,2.1l2.56,10.95c.12.53.77,1.16,1.25,1.24.45.07,1.36-.4,1.56-.84l4.26-9.33c.71-1.55,1.24-3.17,2.25-4.53,1.03-1.4,3.18-2.07,4.53-.93,1.77,1.49,1.71,4.04.69,5.95l-2.38,4.44-7.33,14.76c-1.26,2.54-3.37,4.94-5.75,4.16-.93-.31-1.6-1.35-1.91-2.44l-3.17-10.91Z"/>
    <path class="cls-1" d="M229.19,179.13c.81,5.2-9.02.91-10.61,5.69-.45,1.35-.38,2.84-.19,4.42l11.78-.57c1.08-.05,2.2.23,2.65,1.1.4.78.36,1.96-.22,2.85-.74,1.13-2.35,1.64-3.79,1.61l-14.2-.27c-1.27-.02-2.36-.97-2.28-2.24l.37-5.88,2.33-18.1c.2-1.54,1.58-2.51,3.03-2.68,4.28-.5,8.62-.19,12.83.59,1.45.27,2.19,1.25,2.09,2.33-.14,1.51-1.02,2.13-2.52,2.09l-7.16-.18c-.69-.02-1.89.41-2.51.8l-1.05,5.21c-.07.37.23,1.3.5,1.56.31.3,1.23.6,1.67.56l4.81-.42c1.18-.1,2.31.56,2.46,1.55Z"/>
    <path class="cls-1" d="M274.14,195.52c-1.51,1.1-3.4.52-4.74-.19-.11-.49-.18-1.44-.07-1.9,1.34-5.54,2.23-10.8,2.27-16.63-3.44-.89-7,1.38-8.29-1.26-.46-.95-.35-2.22.63-3.15.63-.6,1.51-.94,2.49-1.05l5.07-.59c.45-.05,1.05-1.25,1.13-1.76l.92-5.96c.31-1.98,1.63-3.08,3.6-3.3.92-.1,2.13-.02,3.05.37.12,3.28-1.91,6.22-.97,9.78l4.37-.05c1.3-.01,2.91-.31,4.05.32.84.46.73,1.91.36,2.64-.31.62-1.28,1.48-2.13,1.58l-6.71.85c-.71.6-1.12,2.11-1.26,3.11l-1.98,13.84c-.16,1.12-.86,2.67-1.78,3.34Z"/>
    <path class="cls-1" d="M116.86,161.18c2.81-.17,4.61,1.22,5.2,3.68.11,0,.28-.02.39.03,4.47.62,5.47,5.38,5.65,8.53.12,2.1-.19,4.33-1.01,6.37-1.74,4.25-6.14,8.56-11.33,8.86-5.57.33-10.95-3.51-11.27-8.97-.36-6.12,6.08-18.13,12.37-18.5ZM115.59,181.91c1.05-.06,1.96-.56,2.75-1.21,2.39-1.8,3.62-4.31,3.46-7.12-.05-.83-.2-1.59-.42-2.41q-.06-.05-.06-.11l-.55.03c-.77.05-1.59.2-2.37.25-1.21.07-2.47-.57-2.97-1.6-2,2.66-4.02,6.94-3.87,9.53.1,1.71,2.16,2.75,4.03,2.64Z"/>
    <path class="cls-1" d="M301.36,166.57c2.82-.02,4.54,1.46,5,3.95.11,0,.28,0,.39.05,4.43.86,5.18,5.66,5.2,8.81.01,2.1-.41,4.31-1.34,6.31-1.96,4.16-6.58,8.22-11.78,8.25-5.58.04-10.75-4.08-10.78-9.55-.04-6.14,7.02-17.79,13.32-17.83ZM299,187.2c1.05,0,1.99-.45,2.81-1.07,2.48-1.67,3.84-4.11,3.83-6.93,0-.83-.12-1.6-.29-2.43q-.06-.05-.06-.11h-.55c-.77,0-1.6.12-2.38.13-1.22,0-2.44-.7-2.89-1.75-2.14,2.56-4.38,6.72-4.36,9.31.01,1.71,2.01,2.86,3.89,2.85Z"/>
    <path class="cls-1" d="M157.78,178.67c.41-4.52,1.15-8.26,2.25-12.65.11-.4.06-1.75,1.07-2.67.92-.83,2.62-.44,3.21-.38,1.67.15,2.09,1.68,1.99,2.8-.03.33-.1.66-.17,1.03-.67,3.64-1.95,7.32-2.28,11.02-.24,2.66.02,4.66.22,7.32.02.25.12.86.14,1.1.07,1.12-.04,1.7-.09,2.28-.1,1.15-1.09,1.8-2.35,1.69-3.89-.35-4.24-8.79-3.99-11.53Z"/>
    <path class="cls-1" d="M166.33,221.21c-3.93,6.24-10.25,9.78-17.24,11.6-1.5.39-3.39.33-4.56-.49-.99-.7-2.21-2.88-2.07-4.41l1.36-15.49,1.66-15.94c.22-2.12,1.66-3.3,3.54-3.37,2.07-.07,3.5,1.62,3.24,3.94l-.75,6.76c-.73,6.62,8.03,1.29,14.22,7.16,2.76,2.62,2.77,6.83.61,10.25ZM160.56,218.8c1.02-1.33.89-3.28-.69-4.25-2.47-1.52-6.4-2.57-9.04-.88-1.61,2.34-1.35,5.73-1.66,8.52-.11.99.22,2.33.75,2.83,2.47,2.37,7.76-2.44,10.65-6.22Z"/>
    <path class="cls-1" d="M232.92,224.58c4.13,3.19,8.19-.26,11.11-.17,1.35.04,2.29,1.66,2.44,2.77.58,4.44-9.17,7.82-15.79,4.5-5.63-2.82-8.1-8.97-7.17-14.96.71-4.59,2.87-8.6,6.35-10.85,3.98-2.58,9.46-3.59,13.56-1.24,2.05,1.17.75,5.49-1.23,6.07-1.69.5-3.17.21-4.93.32-3.96.25-7.47,3.98-7.45,7.97.01,2.39,1.76,4.54,3.12,5.59Z"/>
    <path class="cls-1" d="M184.57,201.87c3.08,0,4.94,1.63,5.43,4.34.12,0,.3,0,.42.06,4.82.96,5.61,6.21,5.61,9.65,0,2.29-.48,4.7-1.51,6.87-2.17,4.52-7.24,8.92-12.9,8.92-6.09,0-11.7-4.52-11.7-10.49,0-6.69,7.78-19.36,14.65-19.36ZM181.86,224.36c1.15,0,2.17-.48,3.08-1.15,2.71-1.81,4.22-4.46,4.22-7.54,0-.9-.12-1.75-.3-2.65q-.06-.06-.06-.12h-.6c-.84,0-1.75.12-2.59.12-1.33,0-2.65-.78-3.14-1.93-2.35,2.77-4.82,7.3-4.82,10.13,0,1.87,2.17,3.14,4.22,3.14Z"/>
    <path class="cls-1" d="M263.6,201.87c3.08,0,4.94,1.63,5.43,4.34.12,0,.3,0,.42.06,4.82.96,5.61,6.21,5.61,9.65,0,2.29-.48,4.7-1.51,6.87-2.17,4.52-7.24,8.92-12.9,8.92-6.09,0-11.7-4.52-11.7-10.49,0-6.69,7.78-19.36,14.65-19.36ZM260.89,224.36c1.15,0,2.17-.48,3.08-1.15,2.71-1.81,4.22-4.46,4.22-7.54,0-.9-.12-1.75-.3-2.65q-.06-.06-.06-.12h-.6c-.84,0-1.75.12-2.59.12-1.33,0-2.65-.78-3.14-1.93-2.35,2.77-4.82,7.3-4.82,10.13,0,1.87,2.17,3.14,4.22,3.14Z"/>
    <path class="cls-1" d="M205.58,225.06c.52,0,.86.11,1.21.23.23.11.46.23.8.34.11.06.46.06.8.06.4.06.86,0,1.09,0,1.15,0,2.41-.11,3.5-.4-.75-.63-1.78-1.38-2.87-2.12-1.49-.98-3.04-1.95-4.59-2.98-2.98-2.01-5.8-4.42-5.8-7.4,0-2.47,1.66-4.07,3.21-5.45,2.53-2.18,5.62-4.07,9.3-4.3h.46c2.12,0,4.42.75,5.97,2.35.69.75,1.55,2.87,1.66,3.85v.23c0,1.38-1.09,2.7-2.75,2.7-.98,0-1.55-.34-2.01-.86-.23-.23-.4-.52-.52-.75-.17-.23-.29-.46-.46-.69-.23-.23-1.15-.34-1.49-.34-1.95,0-4.71,1.49-6.14,3.04.46.4.92.75,1.38,1.09.69.52,1.38.92,2.07,1.38,2.12,1.38,4.25,2.75,6.26,4.25,2.18,1.61,4.3,3.96,4.3,6.83,0,4.94-6.54,6.66-10.22,6.66-2.81,0-8.32-.98-8.32-4.65,0-1.61,1.38-3.04,3.16-3.04Z"/>
    <path class="cls-1" d="M101.4,216.62c0-1.95.25-3.91.63-5.81v-.13s0-.08.03-.1v-.13c.13-.63.65-1.18,1.45-1.18,1.23,0,1.4,1.2,1.4,1.9,0,.5-.08,1.05-.13,1.6-.05.5-.08,1.05-.13,1.55.78-1.95,2.6-6.16,4.98-6.16,1.5,0,2,1.35,2,2.4,0,1.95-.65,3.91-.65,5.96,0,.58.05,1.18.23,1.7,0,.08.08.25.15.43.05.08.08.15.1.23.02.02.05.05.05.08.08.08.15.18.23.23.05.08.13.15.18.23.1.18.18.38.18.65,0,.68-.53,1.3-1.33,1.3-.45,0-.88-.2-1.2-.4-1.53-.95-1.8-2.98-1.8-4.43,0-.83.08-1.65.2-2.45-.65,1.43-1.18,2.9-1.65,4.41-.15.4-.3.93-.48,1.48-.18.53-.4,1.05-.68,1.4-.33.48-.85.75-1.48.75s-1.13-.3-1.45-.78c-.7-1.1-.83-3.53-.83-4.73Z"/>
    <path class="cls-1" d="M118.72,208.68c1.83,0,3.15,1.15,3.15,2.95,0,1.9-2.1,4.63-4.16,5.03-.33.08-.68.1-1.03.1-.23.03-.45.03-.7.03,0,.83.23,2.25,1.3,2.25.43,0,.93-.15,1.45-.38.5-.25,1-.53,1.4-.7.18-.1.35-.23.53-.33.18-.12.4-.23.65-.28.03-.03.08-.03.1-.03h.08c.75,0,1.28.63,1.28,1.25,0,.3-.1.55-.28.75-.08.1-.15.18-.23.28-.1.08-.18.15-.28.25-1.3,1.2-3,2.2-4.81,2.2-3.3,0-4.41-2.98-4.41-5.43,0-3.38,2.05-7.96,5.93-7.96ZM117.95,213.71c.4-.45,1.18-1.5,1.18-1.95v-.08c-1.48,0-2.33,1.35-2.78,2.6.68,0,1.08-.1,1.6-.58Z"/>
    <path class="cls-1" d="M123.7,216.44c0-3.15.38-6.31.85-9.44.05-.3.13-.85.28-1.4.18-.9.53-1.68,1.58-1.68.95,0,1.43,1,1.43,1.68,0,1.35-.23,2.7-.4,4.03-.28,2.08-.53,4.21-.53,6.31,0,1,.05,2.93.38,3.78.08.18.2.38.28.58.1.2.2.43.2.68,0,.78-.6,1.45-1.45,1.45-2.5,0-2.6-4.23-2.6-5.98Z"/>
    <path class="cls-1" d="M103.9,228.88l-.28.05c-.24.05-.26.07-.4.08-.68.08-1.34.51-1.34-.26,0-1.41,1.68-1.82,2.78-2.01,3.83-.63,7.72-.74,11.6-.74,1.76,0,3.53.05,5.32.17,1.41.11,2.81.3,4.24.41.22.03.44.03.66.05.83.11,1.6.63,1.57,1.54-.03.92-1.06.59-2.07.53-.33-.02-1.05-.02-1.27-.02-.99,0-1.74-.07-2.7-.13-2.23-.14-4.46-.28-6.7-.28-3.28,0-6.56.17-9.81.41-.25.03-.48.02-.76.04l-.85.14Z"/>
    <path class="cls-1" d="M125.47,200.04l.28-.05c.24-.05.26-.07.4-.08.68-.08,1.34-.51,1.34.26,0,1.41-1.68,1.82-2.78,2.01-3.83.63-7.72.74-11.6.74-1.76,0-3.53-.05-5.32-.17-1.41-.11-2.81-.3-4.24-.41-.22-.03-.44-.03-.66-.05-.83-.11-1.6-.63-1.57-1.54s1.06-.59,2.07-.53c.33.02,1.05.02,1.27.02.99,0,1.74.07,2.7.13,2.23.14,4.46.28,6.7.28,3.28,0,6.56-.17,9.81-.41.25-.03.48-.02.76-.04l.85-.14Z"/>
  </g>
</svg>