<?xml version="1.0" encoding="UTF-8"?>
<svg id="Livello_2" data-name="Livello 2" xmlns="http://www.w3.org/2000/svg" viewBox="0 0 794.2 262.94">
  <defs>
    <style>
      .cls-1 {
        fill: #faf8f5;
      }

      .cls-2 {
        fill: #cab3dd;
      }
    </style>
  </defs>
  <g id="Livello_1-2" data-name="Livello 1">
    <g>
      <g>
        <path class="cls-1" d="M461.26,87.38c-5.32,11.82-8.47,23.46-10.2,35.88-.7,5.04-5.13,9.26-10.02,9.23-9.68-.07-8.42-13.68-4.29-24.58l9.29-24.52c2.44-6.44,5.53-12.64,10.07-17.67,3.39-3.76,9.53-5.45,13.56-2.41,4.28,3.23,6.19,8.32,7.93,13.37l5.01,14.53c.2.59,1.52,1.68,2.09,1.84s1.76-.96,2.03-1.56l10.46-24.05c1.39-3.21,4.02-5.96,7.17-7.17,9.23-3.55,12.75,9.37,14.32,20.15l6.36,43.52c.53,3.65-.97,8.03-4.28,9.38-5.39,2.2-10.7-1.51-12.54-6.82-4.91-14.17-1.61-24.6-5.58-29.98-.71-.96-4.53-1.29-4.89-.13l-5.13,16.43c-2.96,9.49-10.17,16.59-17.43,12.92-2.7-1.37-4.78-4.78-5.14-8.25l-2.68-26.34c-.29-2.86-3.06-4.8-6.1-3.77Z"/>
        <path class="cls-1" d="M196.59,82.39c-.1-.94-1.59-2.77-2.36-3.18s-2.61-.24-3.78.1c-5.33,11.63-8.31,23.56-10.31,36.02-.95,5.96-7.08,10.2-12.45,8.09-7.9-3.1-4.55-16.38-1.05-25.56l8.3-21.77c2.59-6.79,5.68-13.37,10.55-18.67,3.19-3.47,8.98-5.2,12.94-2.62,4.03,2.63,6.26,7.29,7.83,11.87l5.61,16.31c.21.62,1.54,1.72,2.13,1.74s1.73-.97,2.01-1.63l8.88-20.25c2.84-6.47,6.41-12.39,13.14-11.16,5.79,1.06,8.66,12.12,9.78,19.76l6.47,44.13c.58,3.98-1.28,8.35-4.97,9.47-5.21,1.58-10.04-1.88-11.81-6.9-4.73-13.41-1.9-23.87-5.23-29.52-.61-1.03-3.98-1.9-4.7-.91-3.56,4.85-3.2,15.23-10,25.22-2.85,4.19-8.15,6.44-12.87,4.48-3.29-1.37-5.11-5.27-5.46-8.72l-2.68-26.3Z"/>
        <path class="cls-1" d="M646.5,140.64l-15.43-24.31-6.41-11.33c-.57-1.01-3.12-1.92-4.24-1.68-1.29.29-2.58,2.1-2.7,3.64l-2.19,28.36c-.34,4.39-3.45,7.08-8.01,6.87-1.46-.07-4.06-.71-4.85-1.68s-1.15-3.74-1.01-5.2l2.12-21.21,3.55-40.06c.39-4.35,2.37-6.7,6.69-7.25,3.53-.45,6.57.5,8.32,3.93l17.91,35.25c.55,1.08,2.53,2.36,3.56,2.28s2.69-1.33,3.54-2.46l.96-33.3c.54-2.71,2.98-5.03,5.26-5.67,2.38-.67,6.87-.69,7.86,1.6,2.12,4.88.15,9.82-.07,14.74l-2.12,47.38c-.12,2.69.15,5.83-1.39,8.07-2.02,2.93-8.03,4.25-11.36,2.02Z"/>
        <path class="cls-1" d="M338.71,91.34c-4.53-15.6-14.17-34.2-.53-37.3,4.26-.97,8.25.89,9.29,5.36l6.54,27.92c.31,1.34,1.98,2.96,3.2,3.15,1.15.19,3.47-1.01,3.98-2.14l10.87-23.79c1.81-3.96,3.18-8.08,5.73-11.54s8.11-5.29,11.55-2.38c4.51,3.81,4.37,10.31,1.76,15.17l-6.07,11.32-18.69,37.66c-3.21,6.47-8.6,12.6-14.66,10.62-2.38-.78-4.08-3.44-4.88-6.22l-8.09-27.84Z"/>
        <path class="cls-1" d="M583.11,99.32c2.06,13.25-23.02,2.31-27.06,14.52-1.14,3.45-.98,7.23-.49,11.26l30.05-1.44c2.75-.13,5.62.58,6.76,2.8,1.01,1.98.93,5.01-.55,7.28-1.88,2.89-5.99,4.17-9.67,4.1l-36.23-.7c-3.24-.06-6.02-2.48-5.82-5.72l.95-15,5.94-46.18c.51-3.94,4.02-6.4,7.73-6.84,10.92-1.28,21.98-.49,32.73,1.49,3.7.68,5.58,3.19,5.32,5.94-.35,3.85-2.59,5.42-6.42,5.32l-18.27-.46c-1.77-.04-4.81,1.05-6.39,2.04l-2.68,13.29c-.19.94.59,3.32,1.26,3.98.79.77,3.13,1.53,4.26,1.43l12.28-1.07c3.01-.26,5.89,1.43,6.28,3.94Z"/>
        <path class="cls-1" d="M697.78,141.15c-3.85,2.81-8.67,1.33-12.1-.47-.29-1.25-.45-3.68-.17-4.85,3.42-14.14,5.69-27.55,5.8-42.43-8.78-2.27-17.86,3.52-21.14-3.22-1.18-2.43-.88-5.67,1.59-8.03,1.6-1.52,3.85-2.4,6.34-2.69l12.92-1.5c1.16-.13,2.67-3.18,2.88-4.48l2.36-15.19c.78-5.04,4.17-7.85,9.19-8.42,2.35-.27,5.44-.05,7.78.93.3,8.38-4.87,15.85-2.47,24.95l11.15-.12c3.32-.03,7.44-.78,10.34.81,2.15,1.18,1.85,4.87.92,6.74-.79,1.57-3.27,3.77-5.43,4.04l-17.13,2.16c-1.8,1.53-2.85,5.37-3.22,7.94l-5.04,35.32c-.41,2.85-2.2,6.8-4.55,8.51Z"/>
        <path class="cls-1" d="M296.57,53.55c7.18-.42,11.77,3.12,13.26,9.39.28-.02.7-.04.99.08,11.39,1.59,13.94,13.73,14.41,21.75.31,5.35-.48,11.04-2.58,16.25-4.45,10.85-15.67,21.82-28.9,22.6-14.22.84-27.93-8.95-28.75-22.88-.92-15.62,15.5-46.25,31.55-47.19ZM293.33,106.42c2.67-.16,5-1.42,7.02-3.1,6.09-4.59,9.24-10.99,8.82-18.17-.12-2.11-.52-4.07-1.07-6.15q-.15-.13-.16-.27l-1.41.08c-1.97.12-4.06.52-6.04.64-3.1.18-6.3-1.47-7.58-4.07-5.11,6.8-10.26,17.69-9.87,24.31.26,4.36,5.5,7.02,10.28,6.74Z"/>
        <path class="cls-1" d="M767.2,67.3c7.19-.05,11.58,3.73,12.75,10.07.28,0,.71,0,.99.13,11.29,2.19,13.2,14.44,13.25,22.48.03,5.36-1.06,11-3.42,16.1-5.01,10.61-16.79,20.97-30.04,21.06-14.24.09-27.42-10.4-27.51-24.36-.1-15.65,17.9-45.37,33.98-45.47ZM761.19,119.93c2.68-.02,5.07-1.16,7.17-2.72,6.32-4.27,9.8-10.5,9.76-17.69-.01-2.12-.31-4.09-.74-6.2q-.14-.14-.14-.28h-1.41c-1.97.02-4.09.32-6.06.33-3.1.02-6.21-1.79-7.36-4.47-5.46,6.52-11.17,17.13-11.13,23.76.03,4.37,5.12,7.3,9.92,7.27Z"/>
        <path class="cls-1" d="M400.96,98.15c1.04-11.54,2.93-21.07,5.75-32.26.28-1.02.14-4.47,2.74-6.81,2.36-2.13,6.69-1.12,8.2-.98,4.26.39,5.33,4.3,5.07,7.13-.08.85-.25,1.69-.43,2.63-1.7,9.28-4.97,18.66-5.82,28.12-.61,6.79.04,11.9.56,18.67.05.63.3,2.18.35,2.81.19,2.85-.1,4.33-.23,5.81-.27,2.93-2.79,4.59-6,4.3-9.93-.9-10.82-22.42-10.19-29.42Z"/>
      </g>
      <g>
        <g>
          <path class="cls-1" d="M378.9,206.67c-10.03,15.92-26.14,24.96-43.99,29.58-3.82.99-8.65.84-11.64-1.26-2.53-1.78-5.63-7.35-5.28-11.25l3.46-39.51,4.23-40.66c.56-5.41,4.23-8.43,9.03-8.59,5.28-.18,8.92,4.13,8.26,10.04l-1.91,17.24c-1.87,16.88,20.49,3.28,36.28,18.26,7.04,6.67,7.06,17.42,1.56,26.15ZM364.18,200.51c2.59-3.4,2.26-8.37-1.77-10.85-6.29-3.89-16.32-6.55-23.07-2.25-4.12,5.96-3.44,14.61-4.22,21.74-.28,2.53.56,5.93,1.91,7.23,6.29,6.05,19.8-6.21,27.15-15.86Z"/>
          <path class="cls-1" d="M548.77,215.26c10.53,8.15,20.88-.65,28.35-.43,3.44.1,5.84,4.24,6.21,7.06,1.49,11.32-23.39,19.94-40.28,11.47-14.36-7.2-20.66-22.88-18.3-38.16,1.8-11.7,7.33-21.93,16.2-27.67,10.16-6.57,24.13-9.15,34.59-3.17,5.24,2.99,1.92,14-3.14,15.49-4.31,1.27-8.1.53-12.58.82-10.1.64-19.06,10.14-19,20.33.04,6.1,4.49,11.59,7.95,14.26Z"/>
          <path class="cls-1" d="M425.43,157.34c7.84,0,12.61,4.15,13.84,11.08.31,0,.77,0,1.08.15,12.31,2.46,14.31,15.84,14.31,24.61,0,5.85-1.23,12-3.85,17.54-5.54,11.54-18.46,22.77-32.92,22.77-15.54,0-29.84-11.54-29.84-26.77,0-17.07,19.84-49.38,37.38-49.38ZM418.51,214.71c2.92,0,5.54-1.23,7.85-2.92,6.92-4.61,10.77-11.38,10.77-19.23,0-2.31-.31-4.46-.77-6.77q-.15-.15-.15-.31h-1.54c-2.15,0-4.46.31-6.62.31-3.38,0-6.77-2-8-4.92-6,7.08-12.31,18.61-12.31,25.84,0,4.77,5.54,8,10.77,8Z"/>
          <path class="cls-1" d="M627.03,157.34c7.84,0,12.61,4.15,13.84,11.08.31,0,.77,0,1.08.15,12.31,2.46,14.31,15.84,14.31,24.61,0,5.85-1.23,12-3.85,17.54-5.54,11.54-18.46,22.77-32.92,22.77-15.54,0-29.84-11.54-29.84-26.77,0-17.07,19.84-49.38,37.38-49.38ZM620.11,214.71c2.92,0,5.54-1.23,7.85-2.92,6.92-4.61,10.77-11.38,10.77-19.23,0-2.31-.31-4.46-.77-6.77q-.15-.15-.15-.31h-1.54c-2.15,0-4.46.31-6.62.31-3.38,0-6.77-2-8-4.92-6,7.08-12.31,18.61-12.31,25.84,0,4.77,5.54,8,10.77,8Z"/>
          <path class="cls-1" d="M479.02,216.49c1.32,0,2.2.29,3.07.59.58.29,1.17.59,2.05.88.29.15,1.17.15,2.05.15,1.03.15,2.2,0,2.78,0,2.93,0,6.15-.29,8.93-1.02-1.9-1.61-4.54-3.51-7.32-5.42-3.81-2.49-7.76-4.98-11.71-7.61-7.61-5.12-14.79-11.27-14.79-18.88,0-6.29,4.25-10.39,8.2-13.91,6.44-5.56,14.35-10.39,23.72-10.98h1.17c5.42,0,11.27,1.9,15.22,6,1.76,1.9,3.95,7.32,4.25,9.81v.59c0,3.51-2.78,6.88-7.03,6.88-2.49,0-3.95-.88-5.12-2.2-.58-.59-1.02-1.32-1.32-1.9-.44-.59-.73-1.17-1.17-1.76-.59-.59-2.93-.88-3.81-.88-4.98,0-12,3.81-15.66,7.76,1.17,1.02,2.34,1.9,3.51,2.78,1.76,1.32,3.51,2.34,5.27,3.51,5.42,3.51,10.83,7.03,15.96,10.83,5.56,4.1,10.98,10.1,10.98,17.42,0,12.59-16.69,16.98-26.06,16.98-7.17,0-21.23-2.49-21.23-11.86,0-4.1,3.51-7.76,8.05-7.76Z"/>
        </g>
        <g>
          <g>
            <path class="cls-1" d="M213.28,194.95c0-4.98.64-9.96,1.6-14.81v-.32c0-.06,0-.19.06-.26v-.32c.32-1.6,1.66-3,3.7-3,3.13,0,3.58,3.06,3.58,4.85,0,1.28-.19,2.68-.32,4.09-.13,1.28-.19,2.68-.32,3.96,1.98-4.98,6.64-15.71,12.71-15.71,3.83,0,5.11,3.45,5.11,6.13,0,4.98-1.66,9.96-1.66,15.2,0,1.47.13,3,.57,4.34,0,.19.19.64.38,1.09.13.19.19.38.26.57.06.06.13.13.13.19.19.19.38.45.57.57.13.19.32.38.45.57.26.45.45.96.45,1.66,0,1.72-1.34,3.32-3.38,3.32-1.15,0-2.24-.51-3.07-1.02-3.9-2.43-4.6-7.6-4.6-11.3,0-2.11.19-4.21.51-6.26-1.66,3.64-3,7.41-4.21,11.24-.38,1.02-.77,2.36-1.21,3.77-.45,1.34-1.02,2.68-1.72,3.58-.83,1.21-2.17,1.92-3.77,1.92s-2.87-.77-3.7-1.98c-1.79-2.81-2.11-9-2.11-12.07Z"/>
            <path class="cls-1" d="M257.46,174.71c4.66,0,8.05,2.94,8.05,7.54,0,4.85-5.36,11.81-10.6,12.84-.83.19-1.72.26-2.62.26-.57.06-1.15.06-1.79.06,0,2.11.57,5.75,3.32,5.75,1.09,0,2.36-.38,3.7-.96,1.28-.64,2.55-1.34,3.58-1.79.45-.26.89-.57,1.34-.83.45-.32,1.02-.57,1.66-.7.06-.06.19-.06.26-.06h.19c1.92,0,3.26,1.6,3.26,3.19,0,.77-.26,1.4-.7,1.92-.19.26-.38.45-.57.7-.26.19-.45.38-.7.64-3.32,3.06-7.66,5.62-12.26,5.62-8.43,0-11.24-7.6-11.24-13.86,0-8.62,5.24-20.31,15.13-20.31ZM255.49,187.54c1.02-1.15,3-3.83,3-4.98v-.19c-3.77,0-5.94,3.45-7.09,6.64,1.72,0,2.75-.26,4.09-1.47Z"/>
            <path class="cls-1" d="M270.17,194.51c0-8.05.96-16.09,2.17-24.07.13-.77.32-2.17.7-3.58.45-2.3,1.34-4.28,4.02-4.28,2.43,0,3.64,2.55,3.64,4.28,0,3.45-.57,6.9-1.02,10.28-.7,5.3-1.34,10.73-1.34,16.09,0,2.55.13,7.47.96,9.64.19.45.51.96.7,1.47.26.51.51,1.09.51,1.72,0,1.98-1.53,3.7-3.7,3.7-6.39,0-6.64-10.79-6.64-15.26Z"/>
          </g>
          <path class="cls-1" d="M219.64,226.25l-.72.13c-.61.13-.66.17-1.01.21-1.75.19-3.42,1.3-3.42-.66,0-3.58,4.29-4.64,7.1-5.13,9.77-1.62,19.68-1.9,29.59-1.9,4.5,0,9,.14,13.57.42,3.58.28,7.17.77,10.82,1.05.56.07,1.12.07,1.69.14,2.11.28,4.08,1.62,4.01,3.94-.07,2.34-2.71,1.51-5.27,1.35-.84-.05-2.67-.04-3.23-.04-2.53,0-4.43-.18-6.89-.32-5.69-.35-11.39-.7-17.08-.7-8.36,0-16.73.42-25.02,1.05-.63.07-1.24.04-1.94.11l-2.18.35Z"/>
          <path class="cls-1" d="M274.69,152.67l.72-.13c.61-.13.66-.17,1.01-.21,1.75-.19,3.42-1.3,3.42.66,0,3.58-4.29,4.64-7.1,5.13-9.77,1.62-19.68,1.9-29.59,1.9-4.5,0-9-.14-13.57-.42-3.58-.28-7.17-.77-10.82-1.05-.56-.07-1.12-.07-1.69-.14-2.11-.28-4.08-1.62-4.01-3.94.07-2.34,2.71-1.51,5.27-1.35.84.05,2.67.04,3.23.04,2.53,0,4.43.18,6.89.32,5.69.35,11.39.7,17.08.7,8.36,0,16.73-.42,25.02-1.05.63-.07,1.24-.04,1.94-.11l2.18-.35Z"/>
        </g>
      </g>
      <path class="cls-2" d="M139.46,158.41c-9.26-3.76-19.29-2.98-28.48.7l-8.01-8.26-7.67-7.67c2.74-9.84,4.49-20.76.63-30.38,2.75-1.96,4.77-3.9,5.97-5.19.71-.75.47-1.97-.46-2.42-1.7-.82-4.16-1.94-5.35-2.09-1.91-.24,3.76-1.01,12.26-3.68,8.5-2.67,27.08-15.27,25.5-26.74s-1.68-11.74-3.21-10.9c-1.53.84-3.36,3-4.15,2.06s-.19-3.59,1.46-5.84c1.65-2.25,12.77-23.01-1.48-41.19-3.26-4.16-4.68-1.86-5.19-.39-.19.55-.69.92-1.27.98-1.07.11-2.7.45-3.41,1.48-.94,1.36-8,11.01-12.66,20.18-.68,1.33-2.66,1.02-2.89-.46-1.55-10.1-6.38-31.57-19.78-36.57-.65-.26-1.27-.62-1.84-1.01-2.01-1.4-4.67-1.39-6.65.05-1.54,1.12-3.43,2.41-5.38,3.53-3.86,2.23-8.37,18.84-9.54,25.45-.2,1.13-1.52,1.63-2.43.95-3.35-2.51-9.73-6.88-12.85-6.45-4.35.61-4.47,1.57-6.69,2.19-2.22.62-7.21,4.2-7.09,11.92.11,7.22-3.8,22.37,19.49,47.1,1.13,1.2-.15,3.1-1.68,2.49-4.28-1.71-7.89-3.13-10.67-4.22-25.95-10.13-24.26-8.57-26.74-10.28-1.73-1.2-6.28-4.53-8.18-3.15-.2.15-.61.52-.87,1.87-.66,3.5,1.01,6.66,1.61,7.75,3.67,6.71,13.32,13.38,14.62,14.27,0,0,12.56,8.03,31.88,9.51.87.07,1.49.83,1.41,1.7-.08.9.05,2.04.9,2.96,1.71,1.84,8.31,11.55,25.48,11.02,2.54-.08,4.93-.43,7.15-.98,1.21,5.08,1.13,10.55.4,15.74-4.81-3.28-9.7-5.61-15.3-7.09-12.45-3.28-25.49.25-34.55,9.4-1.18,1.19-1.97,2.71-2.85,4.11-4.98,7.92-4.29,20.9,1.84,27.41,4.77,5.07,11.28,8.03,18.28,8.98,6.95.94,14.27-.71,20.29-4.19,8.27-4.78,11.81-8.46,17.48-16.24,3.01,2.94,5.67,5.84,8.17,9.12-17.25,13.47-22.88,29.08-19.66,50.66l-11.89-13.58c-5.8-6.62-12.37-11.47-20.58-14.58-9.27-3.51-18.64-5.51-28.53-6.57-2.25-.24-5.73-2.41-6.79-1.14-2.23,2.66,10.57,18.13,15.27,22.68,7.15,6.93,15.58,11.93,25.11,14.91l6.26,1.96c5.63,1.76,11.29,2.37,16.88,4.33,2.61.92,5.64,1.48,7.68,3.42l2.64,4.64c3.28,5.75,9.37,13.04,14.3,17.37l2.46,2.02c6.92,5.68,19.07,16.2,26.84,7.49,2.64-2.96,2.11-7.19-.63-9.64-.89-.79-1.99-1.15-3.01-1.43-.94-.37-2.04-.57-2.89-.86-4.02-1.55-9.39-6.02-12.93-9.17l-3.97-3.62-4.32-4.38c-1.77-1.8-3.22-3.89-4.29-6.18l-1.55-3.33-2.43-7.15c-1.35-3.99-.38-8.31,0-12.39.83-8.91,6.84-18.79,14.61-23.74,4.82,8.57,9.98,19.49,18.6,23.93,10.92,5.62,24.86.52,29.56-11.18,5.07-12.6-2.44-27.27-14.24-32.06ZM47.46,161.66c-1.47-.67-3.34-1.92-4.22-3.41-2.42-4.08-1.34-8.92,1.83-12.27,8.58-8.47,23.38-5.55,33.04,1.63-6.7,10.33-18.35,17.45-30.65,14.05ZM138.7,187.66c-1.59,1.83-5.07,2.54-7.48,1.86-2.53-.71-4.51-2.57-5.87-4.53-3-4.35-5.42-8.83-7.68-13.57,6.97-2.74,14.6-1.52,19.94,3.58,3.48,3.32,4.33,8.94,1.1,12.67Z"/>
    </g>
  </g>
</svg>