<?xml version="1.0" encoding="UTF-8"?>
<svg id="Livello_2" data-name="Livello 2" xmlns="http://www.w3.org/2000/svg" viewBox="0 0 632.57 1070.9">
  <defs>
    <style>
      .cls-1 {
        fill: #d1b4ed;
      }
    </style>
  </defs>
  <g id="Livello_1-2" data-name="Livello 1">
    <g>
      <path class="cls-1" d="M390.76,459.44c11.19-7.97,19.41-15.89,24.32-21.14,2.88-3.07,1.91-8.02-1.88-9.86-6.91-3.35-16.94-7.88-21.77-8.5-7.79-.99,15.3-4.12,49.93-15,34.63-10.88,110.29-62.17,103.85-108.9-6.44-46.72-6.83-47.83-13.07-44.4-6.24,3.42-13.7,12.24-16.9,8.4-3.2-3.84-.77-14.61,5.94-23.78,6.71-9.17,52.02-93.71-6.04-167.76-13.28-16.94-19.06-7.57-21.16-1.59-.78,2.23-2.81,3.74-5.16,3.98-4.36.45-10.98,1.83-13.89,6.04-3.84,5.55-32.59,44.83-51.58,82.18-2.76,5.43-10.83,4.17-11.75-1.85-6.32-41.14-25.99-128.56-80.57-148.92-2.64-1.05-5.17-2.51-7.48-4.11-8.18-5.69-19.03-5.67-27.09.19-6.29,4.57-13.98,9.81-21.91,14.39-15.72,9.08-34.07,76.71-38.86,103.67-.82,4.58-6.19,6.66-9.92,3.87-13.66-10.22-39.62-28.04-52.34-26.26-17.73,2.49-18.23,6.38-27.26,8.92-9.03,2.54-29.35,17.1-28.88,48.55.44,29.41-15.46,91.12,79.37,191.83,4.61,4.89-.62,12.64-6.86,10.15-17.41-6.96-32.12-12.74-43.46-17.17-105.7-41.25-98.81-34.89-108.89-41.85-7.05-4.87-25.57-18.44-33.32-12.82-.82.6-2.49,2.11-3.53,7.63-2.69,14.27,4.12,27.1,6.56,31.57,14.94,27.32,54.24,54.48,59.56,58.12,0,0,51.15,32.7,129.84,38.74,3.53.27,6.05,3.38,5.73,6.91-.34,3.68.19,8.3,3.67,12.04,6.96,7.48,33.83,47.05,103.76,44.89,10.36-.32,20.09-1.77,29.14-4,6.98-1.11,16.23-3.3,26.42-7.88,11.35-5.11,19.8-11.37,25.48-16.29Z"/>
      <path class="cls-1" d="M568.01,645.16c-37.72-15.31-78.57-12.15-115.98,2.86l-32.6-33.62-31.22-31.22c11.16-40.09,18.28-84.57,2.55-123.73-13.27,9.44-30.72,18.95-51.89,24.17,4.93,20.68,4.61,42.96,1.65,64.1-19.59-13.34-39.52-22.86-62.3-28.87-50.7-13.38-103.82,1.03-140.71,38.28-4.8,4.85-8.04,11.05-11.62,16.73-20.3,32.24-17.46,85.13,7.51,111.64,19.43,20.63,45.93,32.71,74.46,36.58,28.3,3.84,58.12-2.89,82.62-17.05,33.66-19.46,48.11-34.44,71.2-66.15,12.25,11.98,23.1,23.8,33.28,37.16-70.27,54.87-93.2,118.45-80.06,206.34l-48.41-55.29c-23.62-26.98-50.38-46.71-83.83-59.37-37.77-14.29-75.9-22.42-116.2-26.74-9.15-.98-23.32-9.82-27.66-4.64-9.08,10.82,43.06,73.82,62.2,92.38,29.11,28.22,63.46,48.59,102.27,60.73l25.48,7.97c22.92,7.17,45.98,9.66,68.74,17.64,10.62,3.73,22.98,6.04,31.29,13.94l10.76,18.88c13.34,23.41,38.15,53.1,58.25,70.76l10.02,8.23c28.18,23.13,77.66,65.98,109.3,30.49,10.76-12.07,8.6-29.27-2.59-39.24-3.61-3.22-8.12-4.69-12.28-5.84-3.84-1.51-8.31-2.31-11.78-3.49-16.38-6.32-38.24-24.5-52.67-37.37l-16.17-14.76-17.58-17.85c-7.22-7.33-13.12-15.84-17.46-25.16l-6.31-13.55-9.88-29.12c-5.51-16.23-1.54-33.85,0-50.48,3.36-36.28,27.86-76.52,59.49-96.67,19.62,34.89,40.66,79.38,75.75,97.45,44.48,22.9,101.25,2.12,120.41-45.52,20.64-51.34-9.95-111.07-58.01-130.57ZM193.3,658.4c-6-2.72-13.6-7.82-17.18-13.88-9.84-16.63-5.46-36.34,7.44-49.97,34.94-34.5,95.24-22.6,134.56,6.64-27.3,42.06-74.75,71.05-124.81,57.21ZM564.88,764.28c-6.49,7.47-20.63,10.34-30.48,7.57-10.29-2.89-18.38-10.45-23.9-18.46-12.21-17.72-22.07-35.95-31.29-55.28,28.38-11.17,59.45-6.18,81.21,14.58,14.16,13.51,17.64,36.41,4.46,51.58Z"/>
    </g>
  </g>
</svg>